<svg width="40" height="40" viewBox="0 0 40 40" fill="none" xmlns="http://www.w3.org/2000/svg">
<path d="M40 20.0006C40 30.1016 32.5118 38.4522 22.7848 39.8077C21.8749 39.9344 20.9444 40 20 40C18.9094 40 17.8395 39.9125 16.796 39.7443C7.27399 38.2115 0 29.9542 0 19.9994C0 8.95402 8.95429 0 20 0C31.0457 0 40 8.95402 40 19.9994V20.0006Z" fill="#1C1C1B"/>
<path d="M22.7845 16.0585V20.4152H28.1744L27.321 26.2851H22.7845V39.8077C21.8747 39.9344 20.9442 40 19.9998 40C18.9091 40 17.8392 39.9125 16.7958 39.7444V26.2851H11.8252V20.4152H16.7958V15.0854C16.7958 11.7779 19.4769 9.0957 22.7857 9.0957V9.09916C22.7949 9.09916 22.8041 9.0957 22.8133 9.0957H28.1755V14.171H24.6721C23.6299 14.171 22.7857 15.0151 22.7857 16.0574L22.7845 16.0585Z" fill="white"/>
</svg>
