<svg width="40" height="40" viewBox="0 0 40 40" fill="none" xmlns="http://www.w3.org/2000/svg">
<path d="M40 20.0006C40 30.1016 32.5118 38.4522 22.7847 39.8077C21.8749 39.9344 20.9444 40 20 40C18.9094 40 17.8394 39.9125 16.796 39.7443C7.27397 38.2115 0 29.9542 0 19.9994C0 8.95403 8.9543 0 20 0C31.0458 0 40 8.95403 40 19.9994V20.0006Z" fill="#1C1C1B"/>
<path d="M9.73187 13.246C9.19865 12.7507 8.93262 12.1381 8.93262 11.4091C8.93262 10.6801 9.19865 10.0398 9.73187 9.54457C10.2651 9.04936 10.9515 8.80176 11.7934 8.80176C12.6352 8.80176 13.294 9.04936 13.8261 9.54457C14.3593 10.0398 14.6253 10.6617 14.6253 11.4091C14.6253 12.1565 14.3593 12.7507 13.8261 13.246C13.2929 13.7412 12.6157 13.9888 11.7934 13.9888C10.9711 13.9888 10.2651 13.7412 9.73187 13.246ZM14.1762 16.0859V31.2611H9.38176V16.0859H14.1762Z" fill="#FEFFFC"/>
<path d="M30.1406 17.5841C31.1852 18.7185 31.708 20.2766 31.708 22.2598V30.9938H27.1532V22.8759C27.1532 21.8763 26.894 21.0989 26.3758 20.545C25.8575 19.991 25.1608 19.7146 24.2855 19.7146C23.4102 19.7146 22.7134 19.9922 22.1952 20.545C21.6769 21.0989 21.4178 21.8763 21.4178 22.8759V30.9938H16.8364V16.0444H21.4178V18.0275C21.8819 17.3664 22.5073 16.8447 23.2939 16.4601C24.0793 16.0766 24.9638 15.8843 25.9462 15.8843C27.6967 15.8843 29.0948 16.452 30.1394 17.5852L30.1406 17.5841Z" fill="#FEFFFC"/>
</svg>
