<svg width="40" height="40" viewBox="0 0 40 40" fill="none" xmlns="http://www.w3.org/2000/svg">
<path d="M40 20.0006C40 30.1016 32.5118 38.4522 22.7847 39.8077C21.8749 39.9344 20.9444 40 20 40C18.9094 40 17.8394 39.9125 16.796 39.7443C7.27397 38.2115 0 29.9542 0 19.9994C0 8.95402 8.9543 0 20 0C31.0458 0 40 8.95402 40 19.9994V20.0006Z" fill="#1C1C1B"/>
<path d="M32.3254 18.9262C31.7807 12.7833 26.6062 7.94873 20.3215 7.94873C13.6763 7.94873 8.26807 13.3568 8.26807 20.0007C8.26807 22.4398 8.99707 24.7143 10.2501 26.6134L8.74715 29.9416C8.35213 30.8169 9.05695 31.79 10.0117 31.6887L15.6042 31.0933C17.053 31.7117 18.6492 32.0538 20.3215 32.0538C20.7476 32.0538 21.1703 32.0307 21.5849 31.9881C21.9672 31.9467 22.3427 31.8891 22.7147 31.8154C28.1967 30.7063 32.3404 25.8637 32.3738 20.0709V20.0007C32.3738 19.6402 32.3588 19.2786 32.3254 18.9262ZM27.0173 17.2874L24.486 21.1903L23.1477 23.2552C22.8621 23.6951 22.2633 23.7999 21.8452 23.4832L19.6247 21.8007L18.2566 20.7642C18.146 20.6801 17.9916 20.6824 17.8834 20.7711L14.5251 23.5109C13.985 23.952 13.2456 23.2886 13.6245 22.7036L15.9946 19.0494L17.3329 16.9845C17.6185 16.5446 18.2174 16.4398 18.6355 16.7565L20.7902 18.3895L22.1584 19.4248C22.2701 19.5089 22.4245 19.5066 22.5327 19.4179L26.1156 16.4812C26.6557 16.0379 27.3974 16.7012 27.0173 17.2874Z" fill="white"/>
</svg>
