<svg width="40" height="40" viewBox="0 0 40 40" fill="none" xmlns="http://www.w3.org/2000/svg">
<path d="M40 20.0006C40 30.1016 32.5118 38.4522 22.7847 39.8077C21.8749 39.9344 20.9443 40 20 40C18.9093 40 17.8394 39.9125 16.796 39.7443C7.27397 38.2115 0 29.9542 0 19.9994C0 8.95402 8.95424 0 20 0C31.0457 0 40 8.95402 40 19.9994V20.0006Z" fill="#1C1C1B"/>
<path d="M31.8222 12.674C31.2671 13.2348 30.4977 13.5814 29.6455 13.5814C29.5372 13.5814 29.429 13.5757 29.3242 13.5642C30.2133 13.031 30.8997 12.196 31.2417 11.1998C31.2417 11.1998 31.2428 11.1998 31.2428 11.1987C31.2901 11.0651 31.3304 10.9304 31.3626 10.791C30.6589 11.543 29.6973 12.0521 28.6182 12.173C28.4523 12.1926 28.2842 12.2018 28.1138 12.2018C28.0596 12.2018 28.0078 12.2006 27.956 12.1972C27.5909 11.8137 27.1556 11.497 26.673 11.2643C26.1352 11.0018 25.534 10.8474 24.8994 10.8279C24.8476 10.8244 24.7958 10.8233 24.7417 10.8233C24.2038 10.8233 23.6879 10.9188 23.2111 11.095C23.089 11.14 22.9704 11.1883 22.8541 11.2448C21.3431 11.953 20.2973 13.4882 20.2973 15.2674C20.2973 15.6325 20.3422 15.9872 20.424 16.3258C19.961 16.3074 19.5027 16.2625 19.0535 16.1957C18.9096 16.1726 18.7656 16.1485 18.6228 16.1208C17.4768 15.9078 16.3839 15.5415 15.3682 15.044C14.4595 14.5995 13.6119 14.0513 12.8414 13.4133C12.193 12.8789 11.5999 12.2824 11.0701 11.6306C11.0471 11.6029 11.024 11.5741 11.0021 11.5465C10.971 11.5937 10.9423 11.6409 10.9169 11.6904C10.5461 12.3388 10.3365 13.0885 10.3365 13.8878C10.3365 13.912 10.3365 13.9385 10.3376 13.9626C10.3468 14.5615 10.4735 15.1316 10.7004 15.6498C10.7971 15.8801 10.9146 16.0978 11.0494 16.3039C11.4467 16.9155 11.9891 17.4245 12.6294 17.7769C12.6582 17.7953 12.6882 17.8103 12.7181 17.8241C12.6721 17.8333 12.6249 17.8414 12.5776 17.846C12.4464 17.8633 12.3105 17.8725 12.1746 17.8725C11.4928 17.8725 10.8582 17.6594 10.3388 17.2966C10.3353 17.3346 10.3353 17.3738 10.3353 17.413C10.3353 18.6821 10.8674 19.8268 11.7196 20.6341C12.383 21.2675 13.241 21.6925 14.1946 21.8168C13.8514 21.9424 13.4805 22.0103 13.0947 22.0103C12.6767 22.0103 12.2759 21.9309 11.9096 21.7846C12.4555 23.5593 14.0829 24.8606 16.0223 24.9182C14.8373 26.1493 13.173 26.914 11.3315 26.914C10.1867 26.914 9.11108 26.618 8.17822 26.0998C10.4205 28.0403 13.3446 29.2127 16.5428 29.2127C23.6107 29.2127 29.3391 23.4844 29.3391 16.4168C29.3391 16.0275 29.3219 15.6429 29.2873 15.2628C30.4563 14.801 31.3834 13.8578 31.8222 12.6751V12.674Z" fill="white"/>
</svg>
